<svg width="48" height="49" viewBox="0 0 48 49" fill="none" xmlns="http://www.w3.org/2000/svg">
<path fill-rule="evenodd" clip-rule="evenodd" d="M31.7143 3.80273C31.1274 3.80273 30.5645 4.03589 30.1495 4.4509C29.7345 4.86591 29.5013 5.42878 29.5013 6.0157C29.5013 6.60261 29.7345 7.16549 30.1495 7.5805C30.5645 7.99551 31.1274 8.22866 31.7143 8.22866H36.7008L24.2492 20.6803C23.8583 21.0998 23.6455 21.6546 23.6557 22.2279C23.6658 22.8012 23.898 23.3482 24.3035 23.7537C24.7089 24.1591 25.2559 24.3914 25.8292 24.4015C26.4025 24.4116 26.9574 24.1988 27.3769 23.8079L39.8285 11.3563V16.3429C39.8285 16.9298 40.0616 17.4926 40.4767 17.9077C40.8917 18.3227 41.4545 18.5558 42.0415 18.5558C42.6284 18.5558 43.1912 18.3227 43.6063 17.9077C44.0213 17.4926 44.2544 16.9298 44.2544 16.3429V3.80273H31.7143ZM7.37172 12.6546V39.2101C7.37172 39.6014 7.52716 39.9767 7.80383 40.2533C8.08051 40.53 8.45576 40.6854 8.84703 40.6854H35.4026C35.7938 40.6854 36.1691 40.53 36.4458 40.2533C36.7224 39.9767 36.8779 39.6014 36.8779 39.2101V26.67C36.8779 26.0831 37.111 25.5202 37.526 25.1052C37.9411 24.6902 38.5039 24.457 39.0908 24.457C39.6778 24.457 40.2406 24.6902 40.6556 25.1052C41.0707 25.5202 41.3038 26.0831 41.3038 26.67V39.2101C41.3038 40.7752 40.6821 42.2762 39.5754 43.3829C38.4687 44.4896 36.9677 45.1114 35.4026 45.1114H8.84703C7.28193 45.1114 5.78093 44.4896 4.67423 43.3829C3.56754 42.2762 2.9458 40.7752 2.9458 39.2101V12.6546C2.9458 11.0895 3.56754 9.58848 4.67423 8.48178C5.78093 7.37508 7.28193 6.75335 8.84703 6.75335H21.3871C21.9741 6.75335 22.5369 6.9865 22.9519 7.40151C23.367 7.81652 23.6001 8.3794 23.6001 8.96631C23.6001 9.55323 23.367 10.1161 22.9519 10.5311C22.5369 10.9461 21.9741 11.1793 21.3871 11.1793H8.84703C8.45576 11.1793 8.08051 11.3347 7.80383 11.6114C7.52716 11.8881 7.37172 12.2633 7.37172 12.6546Z" fill="black"/>
</svg>
